# xmcd
#
# Track frame offsets: 
#        187
#        10690
#        23357
#        36767
#        47932
#        60815
#        71455
#        83480
#        96315
#        107357
#        118305
#        128345
#
# Disc length: 1862 seconds
#
# Revision: 2
# Processed by: cddbd v1.5.2PL0 Copyright (c) Steve Scherf et al.
# Submitted via: ExactAudioCopy v0.99pb4
#
DISCID=8207440c
DTITLE=Impressions - People Get Ready
DYEAR=1900
DGENRE=Soul
TTITLE0=Woman's Got Soul
TTITLE1=Emotions
TTITLE2=Sometimes I Wonder
TTITLE3=We're In Love
TTITLE4=Just Another Dance
TTITLE5=Can't Work No Longer
TTITLE6=People Get Ready
TTITLE7=I've Found That I've Lost
TTITLE8=Hard To Believe
TTITLE9=See The Real Me
TTITLE10=Get Up And Move
TTITLE11=You Must Believe Me
EXTD=
EXTT0=
EXTT1=
EXTT2=
EXTT3=
EXTT4=
EXTT5=
EXTT6=
EXTT7=
EXTT8=
EXTT9=
EXTT10=
EXTT11=
PLAYORDER=
